<svg width="256" height="256" xmlns="http://www.w3.org/2000/svg" version="1.1">
	<defs>
		<linearGradient id="ss" x1="0" x2="0" y1="0" y2="1">
			<stop stop-color="#f09e2b" offset="0%"/>
			<stop stop-color="#f15d22" offset="50%"/>
			<stop stop-color="#d82b50" offset="100%"/>
		</linearGradient>
	</defs>
	<path fill="url(#ss)" d="M 192 181.332031 L 64 181.332031 L 64 160 L 192 160 Z M 192 138.667969 L 64 138.667969 L 64 117.332031 L 192 117.332031 Z M 192 96 L 64 96 L 64 74.667969 L 192 74.667969 Z M 32 234.667969 L 48 218.667969 L 64 234.667969 L 80 218.667969 L 96 234.667969 L 112 218.667969 L 128 234.667969 L 144 218.667969 L 160 234.667969 L 176 218.667969 L 192 234.667969 L 208 218.667969 L 224 234.667969 L 224 21.332031 L 208 37.332031 L 192 21.332031 L 176 37.332031 L 160 21.332031 L 144 37.332031 L 128 21.332031 L 112 37.332031 L 96 21.332031 L 80 37.332031 L 64 21.332031 L 48 37.332031 L 32 21.332031 Z M 32 234.667969"/>
</svg>
